<svg data-v-423bf9ae="" xmlns="http://www.w3.org/2000/svg" viewBox="0 0 449 90" class="iconLeft"><!----><!----><!----><g data-v-423bf9ae="" id="e0dfed09-fd6b-44d7-8b2b-fc9b32c8e0aa" fill="#000000" transform="matrix(5.830903811703725,0,0,5.830903811703725,123.72746920119093,2.3469397142517323)"><path d="M0.84 12.29L0.84 2.69L2.42 2.69L5.39 7.98Q5.49 8.13 5.63 8.45Q5.78 8.76 5.82 8.88L5.82 8.88L5.87 8.83L5.85 8.04L5.85 2.69L7.45 2.69L7.45 12.29L5.85 12.29L2.88 7Q2.77 6.78 2.64 6.50Q2.51 6.22 2.45 6.10L2.45 6.10L2.39 6.15Q2.39 6.23 2.41 6.47Q2.42 6.71 2.42 6.94L2.42 6.94L2.42 12.29L0.84 12.29ZM10.33 12.46Q9.65 12.46 9.06 11.99Q8.48 11.52 8.48 10.39L8.48 10.39Q8.48 8.99 9.44 8.40Q10.39 7.81 12.14 7.81L12.14 7.81L12.14 7.04Q12.14 6.61 11.98 6.37Q11.82 6.13 11.37 6.13L11.37 6.13Q10.91 6.13 10.70 6.36Q10.49 6.59 10.49 6.90L10.49 6.90L10.49 7.11L8.85 7.11Q8.83 7.03 8.83 6.80L8.83 6.80Q8.83 5.88 9.51 5.32Q10.19 4.76 11.33 4.76L11.33 4.76Q12.59 4.76 13.21 5.32Q13.83 5.88 13.83 6.93L13.83 6.93L13.83 10.56Q13.83 10.81 13.94 10.93Q14.06 11.05 14.22 11.05L14.22 11.05L14.56 11.05L14.56 12.24Q14.14 12.46 13.57 12.46L13.57 12.46Q13.08 12.46 12.73 12.20Q12.39 11.94 12.26 11.49L12.26 11.49L12.19 11.49Q11.84 11.98 11.43 12.22Q11.02 12.46 10.33 12.46L10.33 12.46ZM11.03 11.06Q11.59 11.06 11.87 10.61Q12.14 10.16 12.14 9.45L12.14 9.45L12.14 9.03Q11.28 9.03 10.75 9.30Q10.21 9.58 10.21 10.23L10.21 10.23Q10.21 10.63 10.41 10.84Q10.61 11.06 11.03 11.06L11.03 11.06ZM17.01 12.29L14.73 4.93L16.49 4.93L17.44 8.09Q17.56 8.44 17.71 9.24Q17.86 10.04 17.91 10.30L17.91 10.30L17.96 10.30Q18.00 10.05 18.13 9.28Q18.26 8.50 18.38 8.09L18.38 8.09L19.32 4.93L21 4.93L18.72 12.29L17.01 12.29ZM25.35 12.46Q23.51 12.46 22.52 11.22Q21.53 9.98 21.53 7.49L21.53 7.49Q21.53 5.00 22.52 3.76Q23.51 2.52 25.35 2.52L25.35 2.52Q26.94 2.52 27.91 3.46Q28.88 4.40 28.88 6.26L28.88 6.26L27.05 6.26Q27.05 5.18 26.59 4.62Q26.14 4.06 25.35 4.06L25.35 4.06Q24.37 4.06 23.88 4.86Q23.38 5.67 23.38 7.14L23.38 7.14L23.38 7.84Q23.38 9.31 23.89 10.12Q24.40 10.92 25.41 10.92L25.41 10.92Q26.21 10.92 26.67 10.37Q27.13 9.81 27.13 8.74L27.13 8.74L28.88 8.74Q28.88 10.56 27.92 11.51Q26.95 12.46 25.35 12.46L25.35 12.46ZM32.86 12.46Q31.37 12.46 30.65 11.52Q29.92 10.58 29.92 8.61L29.92 8.61Q29.92 6.64 30.65 5.70Q31.37 4.76 32.86 4.76L32.86 4.76Q34.34 4.76 35.07 5.70Q35.80 6.64 35.80 8.61L35.80 8.61Q35.80 10.58 35.07 11.52Q34.34 12.46 32.86 12.46L32.86 12.46ZM32.86 11.05Q33.49 11.05 33.77 10.51Q34.05 9.97 34.05 8.88L34.05 8.88L34.05 8.34Q34.05 7.25 33.77 6.71Q33.49 6.17 32.86 6.17L32.86 6.17Q32.23 6.17 31.95 6.71Q31.67 7.25 31.67 8.34L31.67 8.34L31.67 8.88Q31.67 9.97 31.95 10.51Q32.23 11.05 32.86 11.05L32.86 11.05ZM39.30 12.46Q38.18 12.46 37.56 11.50Q36.93 10.54 36.93 8.60L36.93 8.60Q36.93 6.68 37.56 5.72Q38.18 4.76 39.21 4.76L39.21 4.76Q39.77 4.76 40.22 5.00Q40.66 5.25 40.85 5.68L40.85 5.68L40.92 5.68L40.92 2.17L42.60 2.17L42.60 12.29L41.20 12.29L41.03 11.38L40.96 11.38Q40.70 11.91 40.26 12.19Q39.83 12.46 39.30 12.46L39.30 12.46ZM39.80 10.93Q40.39 10.93 40.66 10.42Q40.92 9.91 40.92 8.88L40.92 8.88L40.92 8.37Q40.92 7.34 40.66 6.81Q40.39 6.29 39.80 6.29L39.80 6.29Q39.21 6.29 38.95 6.80Q38.68 7.31 38.68 8.34L38.68 8.34L38.68 8.88Q38.68 9.91 38.95 10.42Q39.21 10.93 39.80 10.93L39.80 10.93ZM46.69 12.46Q45.25 12.46 44.53 11.52Q43.81 10.57 43.81 8.61L43.81 8.61Q43.81 4.76 46.63 4.76L46.63 4.76Q47.98 4.76 48.64 5.70Q49.29 6.64 49.29 8.61L49.29 8.61L49.29 9.03L45.56 9.03Q45.57 10.07 45.83 10.58Q46.09 11.09 46.69 11.09L46.69 11.09Q47.12 11.09 47.38 10.72Q47.63 10.35 47.63 9.69L47.63 9.69L49.29 9.69Q49.29 11.06 48.58 11.76Q47.87 12.46 46.69 12.46L46.69 12.46ZM45.57 7.81L47.53 7.81Q47.53 6.13 46.63 6.13L46.63 6.13Q46.12 6.13 45.86 6.56Q45.61 6.99 45.57 7.81L45.57 7.81ZM52.89 12.46Q51.63 12.46 50.93 11.82Q50.22 11.19 50.22 10.12L50.22 10.12L50.23 9.95L51.94 9.95L51.94 10.05Q51.95 10.60 52.25 10.84Q52.54 11.09 52.95 11.09L52.95 11.09Q53.34 11.09 53.63 10.90Q53.93 10.71 53.93 10.29L53.93 10.29Q53.93 9.84 53.59 9.64Q53.26 9.44 52.53 9.24L52.53 9.24Q51.83 9.04 51.39 8.85Q50.96 8.65 50.65 8.20Q50.33 7.76 50.33 7L50.33 7Q50.33 5.92 51.07 5.34Q51.80 4.76 52.96 4.76L52.96 4.76Q54.04 4.76 54.75 5.30Q55.45 5.84 55.45 6.76L55.45 6.76L55.44 7.08L53.73 7.08L53.73 7.06Q53.72 6.13 52.91 6.13L52.91 6.13Q52.51 6.13 52.28 6.33Q52.04 6.52 52.04 6.86L52.04 6.86Q52.04 7.25 52.36 7.43Q52.68 7.60 53.37 7.78L53.37 7.78Q54.08 7.97 54.53 8.17Q54.98 8.37 55.31 8.83Q55.64 9.28 55.64 10.08L55.64 10.08Q55.64 12.46 52.89 12.46L52.89 12.46Z"></path></g><defs data-v-423bf9ae=""><linearGradient data-v-423bf9ae="" gradientTransform="rotate(25)" id="a131c5fa-8ec3-4d3a-a510-e92d0b994fd0" x1="0%" y1="0%" x2="100%" y2="0%"><stop data-v-423bf9ae="" offset="0%" style="stop-color: rgb(180, 55, 61); stop-opacity: 1;"></stop><stop data-v-423bf9ae="" offset="100%" style="stop-color: rgb(178, 58, 203); stop-opacity: 1;"></stop></linearGradient></defs><g data-v-423bf9ae="" id="536fb9da-ca2a-4c97-a525-aba2347462a9" transform="matrix(2.0730041732536404,0,0,2.0730041732536404,-48.8502054716798,-58.357835005455456)" stroke="none" fill="url(#a131c5fa-8ec3-4d3a-a510-e92d0b994fd0)"><path d="M31 61.8c0-.8.2-2.7.2-3.5 0-3.6-1.4-5-4.2-5.2-1.9-.2-3.2-1.3-3.2-3.1 0-1.7 1.2-2.9 3.2-3.1 2.7-.2 4.2-1.5 4.2-5.2 0-.9-.2-2.8-.2-3.5 0-4.9 2.3-8 10-9.8 2-.5 3.6.8 3.6 2.7 0 1.5-1.1 2.4-1.8 2.6-3.9 1.4-4.6 2.8-4.6 5.6 0 1 .2 2.7.2 3.8 0 3.7-1.9 5.7-5.3 6.9 3.4 1.1 5.3 3.1 5.3 6.9 0 1.1-.2 2.8-.2 3.8 0 2.8.7 4.2 4.6 5.6.8.3 1.8 1.1 1.8 2.6 0 1.9-1.6 3.1-3.6 2.7-7.7-1.8-10-4.9-10-9.8zM69 38.2c0 .8-.2 2.7-.2 3.5 0 3.6 1.4 5 4.2 5.2 1.9.2 3.2 1.3 3.2 3.1 0 1.7-1.2 2.9-3.2 3.1-2.7.2-4.2 1.5-4.2 5.2 0 .9.2 2.8.2 3.5 0 4.9-2.3 8-10 9.8-2 .5-3.6-.8-3.6-2.7 0-1.5 1.1-2.4 1.8-2.6 3.9-1.4 4.6-2.8 4.6-5.6 0-1-.2-2.7-.2-3.8 0-3.7 1.9-5.7 5.3-6.9-3.4-1.1-5.3-3.1-5.3-6.9 0-1.1.2-2.8.2-3.8 0-2.8-.7-4.2-4.6-5.6-.8-.3-1.8-1.1-1.8-2.6 0-1.9 1.6-3.1 3.6-2.7 7.7 1.8 10 4.9 10 9.8z"></path></g><!----></svg>