<?xml version="1.0"?>
<svg width="449" height="90" xmlns="http://www.w3.org/2000/svg" xmlns:svg="http://www.w3.org/2000/svg" class="iconLeft">
 <!---->
 <!---->
 <!---->
 <defs>
  <linearGradient gradientTransform="rotate(25)" id="a131c5fa-8ec3-4d3a-a510-e92d0b994fd0" x1="0%" x2="100%" y1="0%" y2="0%">
   <stop offset="0%" stop-color="rgb(180, 55, 61)"/>
   <stop offset="100%" stop-color="rgb(178, 58, 203)"/>
  </linearGradient>
 </defs>
 <!---->
 <g class="layer">
  <title>Layer 1</title>
  <g fill="#000000" id="e0dfed09-fd6b-44d7-8b2b-fc9b32c8e0aa" transform="matrix(5.830903811703725,0,0,5.830903811703725,123.72746920119093,2.3469397142517323)">
   <path d="m0.84,12.29l0,-9.6l1.58,0l2.97,5.29q0.1,0.15 0.24,0.47q0.15,0.31 0.19,0.43l0,0l0.05,-0.05l-0.02,-0.79l0,-5.35l1.6,0l0,9.6l-1.6,0l-2.97,-5.29q-0.11,-0.22 -0.24,-0.5q-0.13,-0.28 -0.19,-0.4l0,0l-0.06,0.05q0,0.08 0.02,0.32q0.01,0.24 0.01,0.47l0,0l0,5.35l-1.58,0zm9.49,0.17q-0.68,0 -1.27,-0.47q-0.58,-0.47 -0.58,-1.6l0,0q0,-1.4 0.96,-1.99q0.95,-0.59 2.7,-0.59l0,0l0,-0.77q0,-0.43 -0.16,-0.67q-0.16,-0.24 -0.61,-0.24l0,0q-0.46,0 -0.67,0.23q-0.21,0.23 -0.21,0.54l0,0l0,0.21l-1.64,0q-0.02,-0.08 -0.02,-0.31l0,0q0,-0.92 0.68,-1.48q0.68,-0.56 1.82,-0.56l0,0q1.26,0 1.88,0.56q0.62,0.56 0.62,1.61l0,0l0,3.63q0,0.25 0.11,0.37q0.12,0.12 0.28,0.12l0,0l0.34,0l0,1.19q-0.42,0.22 -0.99,0.22l0,0q-0.49,0 -0.84,-0.26q-0.34,-0.26 -0.47,-0.71l0,0l-0.07,0q-0.35,0.49 -0.76,0.73q-0.41,0.24 -1.1,0.24l0,0zm0.7,-1.4q0.56,0 0.84,-0.45q0.27,-0.45 0.27,-1.16l0,0l0,-0.42q-0.86,0 -1.39,0.27q-0.54,0.28 -0.54,0.93l0,0q0,0.4 0.2,0.61q0.2,0.22 0.62,0.22l0,0zm5.98,1.23l-2.28,-7.36l1.76,0l0.95,3.16q0.12,0.35 0.27,1.15q0.15,0.8 0.2,1.06l0,0l0.05,0q0.04,-0.25 0.17,-1.02q0.13,-0.78 0.25,-1.19l0,0l0.94,-3.16l1.68,0l-2.28,7.36l-1.71,0zm8.34,0.17q-1.84,0 -2.83,-1.24q-0.99,-1.24 -0.99,-3.73l0,0q0,-2.49 0.99,-3.73q0.99,-1.24 2.83,-1.24l0,0q1.59,0 2.56,0.94q0.97,0.94 0.97,2.8l0,0l-1.83,0q0,-1.08 -0.46,-1.64q-0.45,-0.56 -1.24,-0.56l0,0q-0.98,0 -1.47,0.8q-0.5,0.81 -0.5,2.28l0,0l0,0.7q0,1.47 0.51,2.28q0.51,0.8 1.52,0.8l0,0q0.8,0 1.26,-0.55q0.46,-0.56 0.46,-1.63l0,0l1.75,0q0,1.82 -0.96,2.77q-0.97,0.95 -2.57,0.95l0,0zm7.51,0q-1.49,0 -2.21,-0.94q-0.73,-0.94 -0.73,-2.91l0,0q0,-1.97 0.73,-2.91q0.72,-0.94 2.21,-0.94l0,0q1.48,0 2.21,0.94q0.73,0.94 0.73,2.91l0,0q0,1.97 -0.73,2.91q-0.73,0.94 -2.21,0.94l0,0zm0,-1.41q0.63,0 0.91,-0.54q0.28,-0.54 0.28,-1.63l0,0l0,-0.54q0,-1.09 -0.28,-1.63q-0.28,-0.54 -0.91,-0.54l0,0q-0.63,0 -0.91,0.54q-0.28,0.54 -0.28,1.63l0,0l0,0.54q0,1.09 0.28,1.63q0.28,0.54 0.91,0.54l0,0zm6.44,1.41q-1.12,0 -1.74,-0.96q-0.63,-0.96 -0.63,-2.9l0,0q0,-1.92 0.63,-2.88q0.62,-0.96 1.65,-0.96l0,0q0.56,0 1.01,0.24q0.44,0.25 0.63,0.68l0,0l0.07,0l0,-3.51l1.68,0l0,10.12l-1.4,0l-0.17,-0.91l-0.07,0q-0.26,0.53 -0.7,0.81q-0.43,0.27 -0.96,0.27l0,0zm0.5,-1.53q0.59,0 0.86,-0.51q0.26,-0.51 0.26,-1.54l0,0l0,-0.51q0,-1.03 -0.26,-1.56q-0.27,-0.52 -0.86,-0.52l0,0q-0.59,0 -0.85,0.51q-0.27,0.51 -0.27,1.54l0,0l0,0.54q0,1.03 0.27,1.54q0.26,0.51 0.85,0.51l0,0zm6.89,1.53q-1.44,0 -2.16,-0.94q-0.72,-0.95 -0.72,-2.91l0,0q0,-3.85 2.82,-3.85l0,0q1.35,0 2.01,0.94q0.65,0.94 0.65,2.91l0,0l0,0.42l-3.73,0q0.01,1.04 0.27,1.55q0.26,0.51 0.86,0.51l0,0q0.43,0 0.69,-0.37q0.25,-0.37 0.25,-1.03l0,0l1.66,0q0,1.37 -0.71,2.07q-0.71,0.7 -1.89,0.7l0,0zm-1.12,-4.65l1.96,0q0,-1.68 -0.9,-1.68l0,0q-0.51,0 -0.77,0.43q-0.25,0.43 -0.29,1.25l0,0zm7.32,4.65q-1.26,0 -1.96,-0.64q-0.71,-0.63 -0.71,-1.7l0,0l0.01,-0.17l1.71,0l0,0.1q0.01,0.55 0.31,0.79q0.29,0.25 0.7,0.25l0,0q0.39,0 0.68,-0.19q0.3,-0.19 0.3,-0.61l0,0q0,-0.45 -0.34,-0.65q-0.33,-0.2 -1.06,-0.4l0,0q-0.7,-0.2 -1.14,-0.39q-0.43,-0.2 -0.74,-0.65q-0.32,-0.44 -0.32,-1.2l0,0q0,-1.08 0.74,-1.66q0.73,-0.58 1.89,-0.58l0,0q1.08,0 1.79,0.54q0.7,0.54 0.7,1.46l0,0l-0.01,0.32l-1.71,0l0,-0.02q-0.01,-0.93 -0.82,-0.93l0,0q-0.4,0 -0.63,0.2q-0.24,0.19 -0.24,0.53l0,0q0,0.39 0.32,0.57q0.32,0.17 1.01,0.35l0,0q0.71,0.19 1.16,0.39q0.45,0.2 0.78,0.66q0.33,0.45 0.33,1.25l0,0q0,2.38 -2.75,2.38l0,0z" fill="#ffffff" id="svg_1"/>
  </g>
  <g fill="url(#a131c5fa-8ec3-4d3a-a510-e92d0b994fd0)" id="536fb9da-ca2a-4c97-a525-aba2347462a9" transform="matrix(2.0730041732536404,0,0,2.0730041732536404,-48.8502054716798,-58.357835005455456)">
   <path d="m31,61.8c0,-0.8 0.2,-2.7 0.2,-3.5c0,-3.6 -1.4,-5 -4.2,-5.2c-1.9,-0.2 -3.2,-1.3 -3.2,-3.1c0,-1.7 1.2,-2.9 3.2,-3.1c2.7,-0.2 4.2,-1.5 4.2,-5.2c0,-0.9 -0.2,-2.8 -0.2,-3.5c0,-4.9 2.3,-8 10,-9.8c2,-0.5 3.6,0.8 3.6,2.7c0,1.5 -1.1,2.4 -1.8,2.6c-3.9,1.4 -4.6,2.8 -4.6,5.6c0,1 0.2,2.7 0.2,3.8c0,3.7 -1.9,5.7 -5.3,6.9c3.4,1.1 5.3,3.1 5.3,6.9c0,1.1 -0.2,2.8 -0.2,3.8c0,2.8 0.7,4.2 4.6,5.6c0.8,0.3 1.8,1.1 1.8,2.6c0,1.9 -1.6,3.1 -3.6,2.7c-7.7,-1.8 -10,-4.9 -10,-9.8zm38,-23.6c0,0.8 -0.2,2.7 -0.2,3.5c0,3.6 1.4,5 4.2,5.2c1.9,0.2 3.2,1.3 3.2,3.1c0,1.7 -1.2,2.9 -3.2,3.1c-2.7,0.2 -4.2,1.5 -4.2,5.2c0,0.9 0.2,2.8 0.2,3.5c0,4.9 -2.3,8 -10,9.8c-2,0.5 -3.6,-0.8 -3.6,-2.7c0,-1.5 1.1,-2.4 1.8,-2.6c3.9,-1.4 4.6,-2.8 4.6,-5.6c0,-1 -0.2,-2.7 -0.2,-3.8c0,-3.7 1.9,-5.7 5.3,-6.9c-3.4,-1.1 -5.3,-3.1 -5.3,-6.9c0,-1.1 0.2,-2.8 0.2,-3.8c0,-2.8 -0.7,-4.2 -4.6,-5.6c-0.8,-0.3 -1.8,-1.1 -1.8,-2.6c0,-1.9 1.6,-3.1 3.6,-2.7c7.7,1.8 10,4.9 10,9.8z" id="svg_2"/>
  </g>
 </g>
</svg>